# xmcd CD database file
#
# Track frame offsets:
#	150
#	18152
#	34878
#	55805
#	73856
#	86258
#	100010
#	112212
#	122863
#	131339
#	146941
#	161492
#
# Disc length: 2335 seconds
#
# Revision: 7
# Processed by: cddbd v1.5.2PL0 Copyright (c) Steve Scherf et al.
# Submitted via: CDex 2.10
#
DISCID=a5091d0c
DTITLE=Lightnin' Hopkins - Morning Blues
DYEAR=1996
DGENRE=Blues
TTITLE0=Found My Baby Crying
TTITLE1=Fishing Clothes
TTITLE2=Morning Blues
TTITLE3=Gamblers Blues
TTITLE4=Lonesome Dog Blues
TTITLE5=Last Affair
TTITLE6=Rock Me Mama
TTITLE7=Mr. Charlie
TTITLE8=You're Too Fast
TTITLE9=Love Me This Morning
TTITLE10=Ride In Your New Automobile
TTITLE11=Breakfast Time
EXTD=YEAR: 1996
EXTT0=
EXTT1=
EXTT2=
EXTT3=
EXTT4=
EXTT5=
EXTT6=
EXTT7=
EXTT8=
EXTT9=
EXTT10=
EXTT11=
PLAYORDER=
